<svg id="Layer_1" data-name="Layer 1" xmlns="http://www.w3.org/2000/svg" xmlns:xlink="http://www.w3.org/1999/xlink" viewBox="0 0 1080 1080"><defs><style>.cls-1{fill:#fff;}.cls-2{fill:#1b2630;}</style><symbol id="New_Symbol" data-name="New Symbol" viewBox="0 0 1912.5 429.82"><circle class="cls-1" cx="214.91" cy="214.91" r="214.91"/><rect class="cls-2" x="131.78" y="83.3" width="41.64" height="263.23"/><path class="cls-2" d="M193.88,346.52h63.3a69.66,69.66,0,0,0,69.67-69.66V225.14h-133Z"/><path class="cls-2" d="M303.47,153c0-38.47-25.71-69.66-57.42-69.66H193.88V204.68H303.47Z"/><path class="cls-1" d="M684.57,250.84A61.28,61.28,0,0,1,697.92,290q0,32.67-21.54,51t-61.76,18.31H497.5V105.41H611.77q38.44,0,59.45,16.88t21,48.11q0,23-12.1,38.25a55.74,55.74,0,0,1-31.68,19.93Q671.21,234,684.57,250.84ZM558.38,209.19h39.86q31.69,0,31.69-27.3t-32.4-27.29H558.38Zm77.24,72.17q0-13.64-8.9-21.36t-25.27-7.73H558.38v57.1H601.8Q635.63,309.37,635.62,281.36Z"/><path class="cls-1" d="M875.73,168.22a90,90,0,0,1,36.67,35.41q13.35,23.13,13.35,54.09T912.4,311.81a90,90,0,0,1-36.67,35.41q-23.31,12.27-52.86,12.28t-53-12.28A89.7,89.7,0,0,1,733,311.81q-13.34-23.13-13.35-54.09T733,203.63a89.7,89.7,0,0,1,36.85-35.41q23.49-12.27,53-12.28T875.73,168.22Zm-82.23,53q-11.93,12.64-11.93,36.48T793.5,294a39,39,0,0,0,29.37,12.45q17.43,0,29.19-12.45t11.75-36.3q0-23.84-11.75-36.48a38.29,38.29,0,0,0-29.19-12.63A38.84,38.84,0,0,0,793.5,221.24Z"/><path class="cls-1" d="M1018.3,93.67V359.28H957.43V93.67Z"/><path class="cls-1" d="M1064.57,79.68q10-9.15,26.34-9.14t26.34,9.14q10,9.15,10,23.14a29.6,29.6,0,0,1-10,22.77q-10,9.15-26.34,9.15t-26.34-9.15a29.6,29.6,0,0,1-10-22.77Q1054.6,88.82,1064.57,79.68Zm56.6,79.45V359.28H1060.3V159.13Z"/><path class="cls-1" d="M1317.31,177.12q26,21.16,32.75,58.18h-64.43q-2.87-12.81-11.75-19.93t-22.43-7.12q-16,0-26.34,12.64t-10.32,36.83q0,24.21,10.32,36.83t26.34,12.63q13.53,0,22.43-7.11t11.75-19.93h64.43q-6.76,37-32.75,58.18t-64.43,21.18q-29.2,0-51.8-12.28a87.76,87.76,0,0,1-35.42-35.41q-12.81-23.13-12.81-54.09,0-31.31,12.63-54.27a86.56,86.56,0,0,1,35.43-35.23q22.77-12.27,52-12.28Q1291.32,155.94,1317.31,177.12Z"/><path class="cls-1" d="M1527.52,168.22a90,90,0,0,1,36.66,35.41q13.35,23.13,13.35,54.09t-13.35,54.09a90,90,0,0,1-36.66,35.41q-23.32,12.27-52.87,12.28t-53-12.28a89.73,89.73,0,0,1-36.84-35.41q-13.35-23.13-13.35-54.09t13.35-54.09a89.73,89.73,0,0,1,36.84-35.41q23.51-12.27,53-12.28T1527.52,168.22Zm-82.23,53q-11.94,12.64-11.93,36.48t11.93,36.3a39,39,0,0,0,29.36,12.45,38.5,38.5,0,0,0,29.2-12.45q11.75-12.45,11.74-36.3t-11.74-36.48a38.31,38.31,0,0,0-29.2-12.63A38.8,38.8,0,0,0,1445.29,221.24Z"/><path class="cls-1" d="M1613.48,79.68q10-9.15,26.34-9.14t26.35,9.14a30.07,30.07,0,0,1,10,23.14,29.63,29.63,0,0,1-10,22.77q-10,9.15-26.35,9.15t-26.34-9.15a29.63,29.63,0,0,1-10-22.77A30.06,30.06,0,0,1,1613.48,79.68Zm56.6,79.45V359.28h-60.87V159.13Z"/><path class="cls-1" d="M1892.39,179.33q20.1,23,20.11,63.34V359.28h-60.87V249.87q0-20.15-10.5-31.49t-28-11.34q-18.51,0-29.37,11.88T1773,252.75V359.28h-60.88V158.46H1773v36.71a65.89,65.89,0,0,1,25.45-28.43q16.9-10.44,39.69-10.44Q1872.27,156.3,1892.39,179.33Z"/></symbol></defs><use width="1912.5" height="429.82" transform="translate(118.02 445.16) scale(0.44)" xlink:href="#New_Symbol"/></svg>