<svg id="Layer_1" data-name="Layer 1" xmlns="http://www.w3.org/2000/svg" xmlns:xlink="http://www.w3.org/1999/xlink" viewBox="0 0 1080 1080"><defs><style>.cls-1{fill:#fff;}</style><symbol id="New_Symbol_8" data-name="New Symbol 8" viewBox="0 0 1065.7 217.63"><path class="cls-1" d="M140.89,135.79a46.2,46.2,0,0,1,10.05,29.48q0,24.61-16.22,38.4t-46.51,13.8H0V26.27H86.06q29,0,44.77,12.71t15.82,36.23q0,17.33-9.11,28.81a42,42,0,0,1-23.86,15Q130.82,123.08,140.89,135.79Zm-95-31.37h30q23.86,0,23.86-20.55T75.34,63.32H45.85ZM104,158.78q0-10.28-6.71-16.09t-19-5.81H45.85v43H78.56Q104,179.88,104,158.78Z"/><path class="cls-1" d="M284.86,73.57a67.85,67.85,0,0,1,27.62,26.67q10,17.42,10,40.74t-10,40.73a67.78,67.78,0,0,1-27.62,26.67q-17.57,9.26-39.81,9.25t-40-9.25a67.56,67.56,0,0,1-27.75-26.67q-10-17.42-10-40.73t10-40.74A67.62,67.62,0,0,1,205.1,73.57q17.7-9.24,40-9.25T284.86,73.57ZM222.93,113.5q-9,9.52-9,27.48t9,27.33a29.4,29.4,0,0,0,22.12,9.38,29,29,0,0,0,22-9.38q8.85-9.37,8.85-27.33T267,113.5a28.81,28.81,0,0,0-22-9.51A29.23,29.23,0,0,0,222.93,113.5Z"/><path class="cls-1" d="M392.24,17.42V217.47H346.39v-200Z"/><path class="cls-1" d="M427.08,6.89Q434.6,0,446.92,0t19.84,6.89a22.6,22.6,0,0,1,7.51,17.42,22.33,22.33,0,0,1-7.51,17.16q-7.5,6.89-19.84,6.89t-19.84-6.89a22.35,22.35,0,0,1-7.5-17.16A22.63,22.63,0,0,1,427.08,6.89Zm42.63,59.84V217.47H423.87V66.73Z"/><path class="cls-1" d="M617.43,80.27Q637,96.22,642.1,124.09H593.57q-2.15-9.65-8.84-15t-16.9-5.36A24.53,24.53,0,0,0,548,113.24q-7.77,9.51-7.77,27.74T548,168.72a24.52,24.52,0,0,0,19.84,9.51q10.2,0,16.9-5.36t8.84-15H642.1q-5.1,27.88-24.67,43.82t-48.52,15.95q-22,0-39-9.25a66,66,0,0,1-26.68-26.67q-9.64-17.42-9.65-40.73,0-23.58,9.52-40.88a65.16,65.16,0,0,1,26.67-26.53q17.16-9.24,39.15-9.25Q597.86,64.32,617.43,80.27Z"/><path class="cls-1" d="M775.75,73.57a67.82,67.82,0,0,1,27.61,26.67q10.07,17.42,10.06,40.74t-10.06,40.73a67.76,67.76,0,0,1-27.61,26.67q-17.57,9.26-39.82,9.25T696,208.38a67.5,67.5,0,0,1-27.75-26.67q-10.05-17.42-10-40.73t10-40.74A67.56,67.56,0,0,1,696,73.57q17.7-9.24,39.94-9.25T775.75,73.57ZM713.82,113.5q-9,9.52-9,27.48t9,27.33a29.37,29.37,0,0,0,22.11,9.38,29,29,0,0,0,22-9.38q8.85-9.37,8.85-27.33t-8.85-27.48a28.82,28.82,0,0,0-22-9.51A29.21,29.21,0,0,0,713.82,113.5Z"/><path class="cls-1" d="M840.49,6.89Q848,0,860.33,0t19.84,6.89a22.64,22.64,0,0,1,7.51,17.42,22.36,22.36,0,0,1-7.51,17.16q-7.5,6.89-19.84,6.89t-19.84-6.89A22.35,22.35,0,0,1,833,24.31,22.63,22.63,0,0,1,840.49,6.89Zm42.63,59.84V217.47H837.28V66.73Z"/><path class="cls-1" d="M1050.55,81.94q15.14,17.36,15.15,47.71v87.82h-45.85v-82.4q0-15.18-7.91-23.72t-21-8.54q-13.95,0-22.12,9t-8.18,25.47v80.24H914.75V66.22H960.6V93.87a49.75,49.75,0,0,1,19.17-21.42q12.74-7.86,29.89-7.86Q1035.4,64.59,1050.55,81.94Z"/></symbol></defs><use width="1065.7" height="217.63" transform="translate(145.28 459.39) scale(0.74)" xlink:href="#New_Symbol_8"/></svg>